<svg version="1.1" id="Layer_1" xmlns="http://www.w3.org/2000/svg" xmlns:xlink="http://www.w3.org/1999/xlink" x="0px" y="0px"
	 viewBox="0 0 60 60" style="enable-background:new 0 0 60 60;" xml:space="preserve">
<style type="text/css">
	.st0{fill:#FFFFFF;}
	.st1{fill:#445472;}
	.st2{fill:#67AA6B;}
</style>
<circle class="st0" cx="30" cy="30" r="29.5"/>
<g>
	<path class="st1" d="M30.3,32.8h-5.4v22.6c1.6,0.3,3.3,0.5,5.1,0.5c5.8,0,11.3-1.9,15.6-5.2c-1-2.3-2.2-5.1-3.6-8
		C38.3,35.6,37.3,32.8,30.3,32.8z"/>
	<path class="st1" d="M41.7,18.1c0-5.2-3.8-9-10-9.1c-2,0-3.1,0-6.8,0v17.7H32C39.4,26.7,41.7,23,41.7,18.1z"/>
	<path class="st1" d="M48.6,11.9c0.6,1.6,0.9,5.1,0.8,7.1c-0.5,10.2-10,11.1-10,11.1s4,0.2,7.7,8.1c1.2,2.6,2.6,5,3.7,7.2
		c3.2-4.3,5.1-9.6,5.1-15.4C55.9,23,53.1,16.6,48.6,11.9z"/>
	<path class="st1" d="M30,0.1c-16.6,0-30,13.4-30,30s13.4,30,30,30s30-13.4,30-30S46.6,0.1,30,0.1z M30,59C14,59,1,46,1,30
		S14,1,30,1s29,13,29,29S46,59,30,59z"/>
</g>
<path class="st2" d="M18,7v19.7H4.3C5.4,18.1,10.6,10.9,18,7z M18,53V32.8H4.2C5.2,41.6,10.5,49.1,18,53z"/>
</svg>
